<svg xmlns="http://www.w3.org/2000/svg" viewBox="0 0 352.02 50.19"><path d="M106.7 34.7h-.5c-.7 0-1.1-.5-1.2-1.1V4.2c0-.9-.7-1.6-1.6-1.6l-3.1.4c-1.2.1-1.6.7-1.6 1.6v30.1c0 4.2 3.4 6.4 6.3 6.4h1.4c.8-.1 1.4-.8 1.4-1.6v-3.6c0-.7-.5-1.2-1.1-1.2zm11.2-22.3h-3.1c-1.1 0-1.6.7-1.6 1.6v25.4c0 .9.7 1.6 1.6 1.6h3.1c.9 0 1.6-.7 1.6-1.6V14.1c-.1-1.1-.8-1.7-1.6-1.7zm197.1.2h-2.3c-5 0-9.1 4.2-9.1 9.3V32c0 5.1 4.1 9.3 9.1 9.3h2.3c5 0 9.1-4.2 9.1-9.3V21.8c0-5.1-4.1-9.2-9.1-9.2zm2.9 19.3c0 2.1-1.7 3.9-3.8 3.9H313c-2.1 0-3.8-1.7-3.8-3.9V21.8c0-2.1 1.7-3.9 3.8-3.9h1.1c2.1 0 3.8 1.7 3.8 3.9zM116.6 2.6c-1.9 0-3.4 1.4-3.4 3.1 0 1.7 1.5 3.1 3.4 3.1s3.4-1.4 3.4-3.1c.1-1.7-1.5-3.1-3.4-3.1zM92.2 5.3H73.3c-.6 0-1.5.5-1.5 1.6v32.8c0 .9.7 1.6 1.6 1.6h3.1c.9 0 1.6-.7 1.6-1.6V27.1c0-.2.1-.3.3-.3H90c.9 0 1.6-.7 1.6-1.6v-4c0-.9-.7-1.6-1.6-1.6H78.4c-.2 0-.3-.1-.3-.3v-6.9c0-.2.1-.3.3-.3h13.8c.9 0 1.6-.7 1.6-1.6V6.8c0-.8-.7-1.5-1.6-1.5zm60.5 16v-1zM351.9 40l-11.2-13.7c5.6-3.7 7.9-10.3 8-10.9.1-.6-.1-1.2-1-1.2h-4c-1.1 0-1.2.9-1.5 1.5-.4.6-1.5 4.9-7.3 7.7V5c0-.9-.7-1.6-1.6-1.6h-3.1c-1 0-1.5.8-1.5 1.6v34.6c0 .9.7 1.6 1.5 1.6h3.1c.9 0 1.6-.7 1.6-1.6V28.7l9.6 11.6c.3.3.9 1 1.3 1h5.4c.8-.1 1-1 .7-1.3zM164.4 12.4H162c-5.2 0-9.4 4.2-9.4 9.3v25.2c0 .9.7 1.6 1.6 1.6h3.1c.9 0 1.6-.7 1.6-1.6v-6.8c1.5.7 3.1 1 4.7 1h.8c5.2 0 9.7-4 9.7-9.2V21.8c0-5.2-4.5-9.4-9.7-9.4zm3.2 19.6c0 2.1-1.8 3.9-3.9 3.9h-.8c-2.2 0-3.9-1.8-3.9-3.9V21.8c0-2.1 1.8-3.9 3.9-3.9h.8c2.2 0 3.9 1.8 3.9 3.9zm36.5-19.5h-2.4c-1.5 0-2.9.3-4.1.9-.2-.1-.4-.1-.6-.1h-3.2c-.9 0-1.6.7-1.6 1.6v24.7c0 .4.2.8.5 1.1.3.3.7.5 1.1.5h3.2c.4 0 .8-.2 1.1-.4.3-.3.5-.7.5-1.2V22c0-2.2 1.8-4 4-4h.8c2.2 0 3.3 1.8 3.3 4v17.6c0 .9.7 1.6 1.6 1.6h3.9c.9 0 1.6-.7 1.6-1.6V22c-.1-5.3-4.4-9.5-9.7-9.5zm85.6.1h-2.3c-5.1 0-9.2 4.2-9.2 9.3V32c0 5.1 4.1 9.3 9.2 9.3h2.3c5.1 0 9.2-4.2 9.2-9.3V21.8c0-5.1-4.1-9.2-9.2-9.2zm3.1 19.3c0 2.1-1.7 3.9-3.9 3.9h-1.3c-2.1 0-3.9-1.7-3.9-3.9V21.8c0-2.1 1.7-3.9 3.9-3.9h1.3c2.1 0 3.9 1.7 3.9 3.9zm-52.1-10.1v-.9zm-9.6-9.3h-2.4c-5.3 0-9.6 4.2-9.6 9.3v10.1c0 5.2 4.4 9.3 9.7 9.3h.8c1.8 0 3.2-.2 4.8-1.1 0 3.2-2.5 4.7-4.8 4.7-3.9.1-5.8-2.1-6.2-2.4-.4-.3-.8-.4-1.2 0l-2.2 2.5c-.4.4-.6 1.1 0 1.7 0 0 3.4 3.5 8.8 3.4h.8c7.2 0 11.1-4.9 11.1-12.4V21.8c-.1-5.2-4.3-9.3-9.6-9.3zm3.2 19.4c0 2.1-1.8 3.9-4 3.9h-.8c-2.2 0-4-1.7-4-3.9V21.8c0-2.1 1.8-3.9 4-3.9h.8c2.2 0 4 1.7 4 3.9zM183.2 2.6c-1.9 0-3.4 1.4-3.4 3.1 0 1.7 1.5 3.1 3.4 3.1s3.4-1.4 3.4-3.1c0-1.7-1.6-3.1-3.4-3.1zm1.1 9.9h-3.1c-1.1 0-1.6.7-1.6 1.6v25.4c0 .9.7 1.6 1.6 1.6h3.1c.9 0 1.6-.7 1.6-1.6V14.1c-.1-1.1-.8-1.6-1.6-1.6zm83.5 9.2c2.4-1.8 3.9-4.6 3.9-7.8 0-5.3-4.2-10.3-9.4-10.3h-12.9c-.9 0-1.6.7-1.6 1.6v34.4c0 .9.7 1.6 1.6 1.6h13.3c5.6 0 10.2-4.7 10.2-10.5 0-3.8-2-7.2-5.1-9zm-13.7-11.6c0-.2.1-.3.3-.3h6.3c2.6 0 4.7 2.2 4.7 4.8 0 2.7-2.1 5-4.7 5h-6.3c-.2 0-.3-.1-.3-.3zm7.8 24.6h-7.5c-.2 0-.3-.1-.3-.3v-9c0-.2.1-.3.3-.3h7.5c2.4 0 4.3 2.8 4.3 5.3 0 2.4-1.9 4.3-4.3 4.3zM137.5 12.4h-2.4c-5.2 0-9.4 4.2-9.4 9.3v25.2c0 .9.7 1.6 1.6 1.6h3.1c.9 0 1.6-.7 1.6-1.6v-6.8c1.5.7 3.1 1 4.7 1h.8c5.2 0 9.7-4 9.7-9.2V21.8c0-5.2-4.5-9.4-9.7-9.4zm3.1 19.6c0 2.1-1.8 3.9-3.9 3.9h-.8c-2.2 0-3.9-1.8-3.9-3.9V21.8c0-2.1 1.8-3.9 3.9-3.9h.8c2.2 0 3.9 1.8 3.9 3.9zM45.3 0c-1 0-1.9.2-2.7.6L26.4 9c-.1.1-.5.3-.6.4l-5.4-2.8-4.2-2.2L8.9.7C8.1.3 7.2.1 6.3.1 3.2.1.7 2.3.2 5.2c-.2.3-.2.5-.2.8v38.5c.3 3.2 3 5.7 6.2 5.7 1 0 1.9-.2 2.7-.6l16.2-8.4c.1-.1.5-.3.6-.4l8.1 4.2 1.5.8 7.3 3.7c.8.4 1.7.6 2.7.6 3.1 0 5.6-2.2 6.1-5.1.1-.3.1-.5.1-.8V5.7C51.3 2.5 48.6.1 45.3 0zM22.7 35.4L8.2 43c-.1.1-.3.1-.5.1-.7 0-1.3-.6-1.3-1.3V8.5c0-.7.6-1.3 1.3-1.3.2 0 .3 0 .5.1L13 9.8l8.2 4.2.3.1-.3.6c0 .1-.1.2-.1.3-.1.2-.1.3-.2.5s-.1.5-.2.7c0 .1-.1.3-.1.5v.2l-.1.4c-.1.6-.2 1.3-.1 2 .1 2.1.7 4.1 1.8 5.7l2.1 3.8c.4.7.6 1.5.7 2.3 0 1.8-.9 3.4-2.3 4.3zm22.5 2.2v4.1c0 .7-.6 1.3-1.3 1.3-.2 0-.3 0-.5-.1l-4.8-2.5-8.4-4.3V36v.1c.2-.4.3-.7.5-1.1v.1l.1-.2v-.1c.4-1.2.6-2.5.6-3.9-.1-2.1-.7-4.1-1.8-5.7l-2.1-3.8c-.4-.7-.6-1.5-.7-2.3-.1-1.8.9-3.4 2.3-4.3l14.5-7.6c.1-.1.3-.1.5-.1.7 0 1.3.6 1.3 1.3v4.1zM31.1 33v.2zm-.7 2.5l-.1.2zm.6-1.9l-.1.2z" fill="#ffffff"/></svg>